<?xml version="1.0" encoding="UTF-8" standalone="no"?>
<svg
   width="28.998268mm"
   height="37.429638mm"
   viewBox="0 0 28.998268 37.429638"
   version="1.1"
   id="svg79"
   sodipodi:docname="text.svg"
   xmlns:inkscape="http://www.inkscape.org/namespaces/inkscape"
   xmlns:sodipodi="http://sodipodi.sourceforge.net/DTD/sodipodi-0.dtd"
   xmlns="http://www.w3.org/2000/svg"
   xmlns:svg="http://www.w3.org/2000/svg">
  <sodipodi:namedview
     id="namedview81"
     pagecolor="#ffffff"
     bordercolor="#000000"
     borderopacity="0.25"
     inkscape:showpageshadow="2"
     inkscape:pageopacity="0.0"
     inkscape:pagecheckerboard="0"
     inkscape:deskcolor="#d1d1d1"
     inkscape:document-units="mm"
     showgrid="false" />
  <defs
     id="defs76" />
  <g
     inkscape:label="Layer 1"
     inkscape:groupmode="layer"
     id="layer1"
     transform="translate(-77.75472,-61.434797)">
    <g
       aria-label="ج"
       id="text137"
       style="font-size:35.2777px;font-family:'Noto Nastaliq Urdu';-inkscape-font-specification:'Noto Nastaliq Urdu';stroke-width:0.264583">
      <path
         d="m 88.655529,98.864435 q -3.457214,0 -5.891376,-1.411108 -2.434161,-1.37583 -3.739436,-3.845269 -1.269997,-2.469439 -1.269997,-5.714987 0,-6.103042 3.774714,-11.853307 3.774714,-5.67971 10.971364,-10.336366 -0.07055,-0.105833 -0.740832,-0.176388 -0.670276,-0.105833 -1.587496,-0.176389 -0.91722,-0.07055 -1.83444,-0.105833 -0.881943,-0.03528 -1.411108,-0.03528 -1.269997,0 -2.222495,0.282222 -0.91722,0.246944 -1.622774,1.587497 l -0.881943,-0.28222 q 0.811387,-2.469439 1.869718,-3.598325 1.058331,-1.128887 2.328328,-1.446386 1.305275,-0.317499 2.822216,-0.317499 0.811387,0 1.940274,0.105833 1.128886,0.07055 2.328328,0.246944 1.199441,0.176388 2.222495,0.423332 1.058331,0.211666 1.622774,0.493888 l 0.03528,0.246944 q -0.529166,1.093608 -1.305275,1.940273 -0.740832,0.811387 -1.69333,1.411108 -2.328328,1.481663 -4.656656,3.386659 -2.328328,1.904996 -4.268602,4.162769 -1.940273,2.257772 -3.139715,4.762489 -1.164164,2.504717 -1.164164,5.150544 0,2.786938 1.305275,4.762489 1.340553,1.975551 3.668881,2.998605 2.328328,1.058331 5.36221,1.058331 4.762489,0 8.254981,-2.504717 3.492492,-2.504717 5.926652,-7.51415 l 1.09361,0.317499 q -1.34055,3.38666 -3.17499,6.279431 -1.79917,2.928049 -4.056938,5.079988 -2.257773,2.187218 -4.974155,3.386659 -2.716383,1.23472 -5.891376,1.23472 z"
         style="fill:#fafafa"
         id="path1931" />
      <path
         d="M 92.4655,82.319194 Q 91.724669,81.543085 90.983837,80.908086 90.243005,80.23781 89.537451,79.673367 v -0.317499 q 0.3175,-0.45861 0.952498,-1.164164 0.599721,-0.740832 1.23472,-1.375831 0.599721,-0.670276 0.881942,-0.846664 h 0.3175 q 1.622774,1.023053 2.187217,1.728607 0.564443,0.670276 0.564443,1.269997 0,1.269997 -2.928049,3.351381 z"
         style="fill:#fafafa"
         id="path1933" />
    </g>
  </g>
</svg>
